<?xml version="1.0" encoding="UTF-8" standalone="no"?>
<svg viewBox="-0.5 -0.5 511.0 541.0" preserveAspectRatio="xMidYMin meet" data-height="541.0" data-width="511.0" style="max-height:541.0px; max-width:511.0px; transform:translate(0, 0)" xmlns="http://www.w3.org/2000/svg">

<style type="text/css">

g rect {
    fill:#ffffff;
    stroke-width:1.0;
    stroke:#000001;
    fill-opacity:1;
}

.cx-c {
    font-size:11.0px;
    font-family:monospace;
    pointer-events:none;
    font-weight:bold;
    fill:#000002;
    text-anchor:start;
}

.cx-a {
    font-size:14.0px;
    font-family:monospace;
    text-anchor:middle;
    pointer-events:none;
    fill:#000003;
}

.cx-b {
    fill:#000004;
}
    
</style>
<g id="cx-0-3"><rect shape-rendering="crispEdge"  x="90.0" y="0.0" width="30.0" height="30.0" /><text dy="1em"  class="cx-c" x="92.0" y="2.0" >1</text><text dy=".28em"  class="cx-a" x="105.0" y="15.0"></text></g><g id="cx-1-3"><rect shape-rendering="crispEdge"  x="90.0" y="30.0" width="30.0" height="30.0" /><text dy=".28em"  class="cx-a" x="105.0" y="45.0"></text></g><g id="cx-1-7"><rect shape-rendering="crispEdge"  x="210.0" y="30.0" width="30.0" height="30.0" /><text dy="1em"  class="cx-c" x="212.0" y="32.0" >2</text><text dy=".28em"  class="cx-a" x="225.0" y="45.0"></text></g><g id="cx-2-1"><rect shape-rendering="crispEdge"  x="30.0" y="60.0" width="30.0" height="30.0" /><text dy="1em"  class="cx-c" x="32.0" y="62.0" >3</text><text dy=".28em"  class="cx-a" x="45.0" y="75.0"></text></g><g id="cx-2-2"><rect shape-rendering="crispEdge"  x="60.0" y="60.0" width="30.0" height="30.0" /><text dy=".28em"  class="cx-a" x="75.0" y="75.0"></text></g><g id="cx-2-3"><rect shape-rendering="crispEdge"  x="90.0" y="60.0" width="30.0" height="30.0" /><text dy=".28em"  class="cx-a" x="105.0" y="75.0"></text></g><g id="cx-2-4"><rect shape-rendering="crispEdge"  x="120.0" y="60.0" width="30.0" height="30.0" /><text dy=".28em"  class="cx-a" x="135.0" y="75.0"></text></g><g id="cx-2-5"><rect shape-rendering="crispEdge"  x="150.0" y="60.0" width="30.0" height="30.0" /><text dy=".28em"  class="cx-a" x="165.0" y="75.0"></text></g><g id="cx-2-6"><rect shape-rendering="crispEdge"  x="180.0" y="60.0" width="30.0" height="30.0" /><text dy=".28em"  class="cx-a" x="195.0" y="75.0"></text></g><g id="cx-2-7"><rect shape-rendering="crispEdge"  x="210.0" y="60.0" width="30.0" height="30.0" /><text dy=".28em"  class="cx-a" x="225.0" y="75.0"></text></g><g id="cx-3-3"><rect shape-rendering="crispEdge"  x="90.0" y="90.0" width="30.0" height="30.0" /><text dy=".28em"  class="cx-a" x="105.0" y="105.0"></text></g><g id="cx-3-7"><rect shape-rendering="crispEdge"  x="210.0" y="90.0" width="30.0" height="30.0" /><text dy=".28em"  class="cx-a" x="225.0" y="105.0"></text></g><g id="cx-3-13"><rect shape-rendering="crispEdge"  x="390.0" y="90.0" width="30.0" height="30.0" /><text dy="1em"  class="cx-c" x="392.0" y="92.0" >4</text><text dy=".28em"  class="cx-a" x="405.0" y="105.0"></text></g><g id="cx-4-3"><rect shape-rendering="crispEdge"  x="90.0" y="120.0" width="30.0" height="30.0" /><text dy=".28em"  class="cx-a" x="105.0" y="135.0"></text></g><g id="cx-4-5"><rect shape-rendering="crispEdge"  x="150.0" y="120.0" width="30.0" height="30.0" /><text dy="1em"  class="cx-c" x="152.0" y="122.0" >5</text><text dy=".28em"  class="cx-a" x="165.0" y="135.0"></text></g><g id="cx-4-7"><rect shape-rendering="crispEdge"  x="210.0" y="120.0" width="30.0" height="30.0" /><text dy=".28em"  class="cx-a" x="225.0" y="135.0"></text></g><g id="cx-4-13"><rect shape-rendering="crispEdge"  x="390.0" y="120.0" width="30.0" height="30.0" /><text dy=".28em"  class="cx-a" x="405.0" y="135.0"></text></g><g id="cx-4-15"><rect shape-rendering="crispEdge"  x="450.0" y="120.0" width="30.0" height="30.0" /><text dy="1em"  class="cx-c" x="452.0" y="122.0" >6</text><text dy=".28em"  class="cx-a" x="465.0" y="135.0"></text></g><g id="cx-5-2"><rect shape-rendering="crispEdge"  x="60.0" y="150.0" width="30.0" height="30.0" /><text dy="1em"  class="cx-c" x="62.0" y="152.0" >7</text><text dy=".28em"  class="cx-a" x="75.0" y="165.0"></text></g><g id="cx-5-3"><rect shape-rendering="crispEdge"  x="90.0" y="150.0" width="30.0" height="30.0" /><text dy=".28em"  class="cx-a" x="105.0" y="165.0"></text></g><g id="cx-5-4"><rect shape-rendering="crispEdge"  x="120.0" y="150.0" width="30.0" height="30.0" /><text dy=".28em"  class="cx-a" x="135.0" y="165.0"></text></g><g id="cx-5-5"><rect shape-rendering="crispEdge"  x="150.0" y="150.0" width="30.0" height="30.0" /><text dy=".28em"  class="cx-a" x="165.0" y="165.0"></text></g><g id="cx-5-6"><rect shape-rendering="crispEdge"  x="180.0" y="150.0" width="30.0" height="30.0" /><text dy=".28em"  class="cx-a" x="195.0" y="165.0"></text></g><g id="cx-5-7"><rect shape-rendering="crispEdge"  x="210.0" y="150.0" width="30.0" height="30.0" /><text dy=".28em"  class="cx-a" x="225.0" y="165.0"></text></g><g id="cx-5-13"><rect shape-rendering="crispEdge"  x="390.0" y="150.0" width="30.0" height="30.0" /><text dy=".28em"  class="cx-a" x="405.0" y="165.0"></text></g><g id="cx-5-15"><rect shape-rendering="crispEdge"  x="450.0" y="150.0" width="30.0" height="30.0" /><text dy=".28em"  class="cx-a" x="465.0" y="165.0"></text></g><g id="cx-6-5"><rect shape-rendering="crispEdge"  x="150.0" y="180.0" width="30.0" height="30.0" /><text dy=".28em"  class="cx-a" x="165.0" y="195.0"></text></g><g id="cx-6-13"><rect shape-rendering="crispEdge"  x="390.0" y="180.0" width="30.0" height="30.0" /><text dy=".28em"  class="cx-a" x="405.0" y="195.0"></text></g><g id="cx-6-15"><rect shape-rendering="crispEdge"  x="450.0" y="180.0" width="30.0" height="30.0" /><text dy=".28em"  class="cx-a" x="465.0" y="195.0"></text></g><g id="cx-7-4"><rect shape-rendering="crispEdge"  x="120.0" y="210.0" width="30.0" height="30.0" /><text dy="1em"  class="cx-c" x="122.0" y="212.0" >8</text><text dy=".28em"  class="cx-a" x="135.0" y="225.0"></text></g><g id="cx-7-5"><rect shape-rendering="crispEdge"  x="150.0" y="210.0" width="30.0" height="30.0" /><text dy=".28em"  class="cx-a" x="165.0" y="225.0"></text></g><g id="cx-7-6"><rect shape-rendering="crispEdge"  x="180.0" y="210.0" width="30.0" height="30.0" /><text dy=".28em"  class="cx-a" x="195.0" y="225.0"></text></g><g id="cx-7-7"><rect shape-rendering="crispEdge"  x="210.0" y="210.0" width="30.0" height="30.0" /><text dy=".28em"  class="cx-a" x="225.0" y="225.0"></text></g><g id="cx-7-8"><rect shape-rendering="crispEdge"  x="240.0" y="210.0" width="30.0" height="30.0" /><text dy=".28em"  class="cx-a" x="255.0" y="225.0"></text></g><g id="cx-7-9"><rect shape-rendering="crispEdge"  x="270.0" y="210.0" width="30.0" height="30.0" /><text dy="1em"  class="cx-c" x="272.0" y="212.0" >9</text><text dy=".28em"  class="cx-a" x="285.0" y="225.0"></text></g><g id="cx-7-10"><rect shape-rendering="crispEdge"  x="300.0" y="210.0" width="30.0" height="30.0" /><text dy=".28em"  class="cx-a" x="315.0" y="225.0"></text></g><g id="cx-7-13"><rect shape-rendering="crispEdge"  x="390.0" y="210.0" width="30.0" height="30.0" /><text dy=".28em"  class="cx-a" x="405.0" y="225.0"></text></g><g id="cx-7-15"><rect shape-rendering="crispEdge"  x="450.0" y="210.0" width="30.0" height="30.0" /><text dy=".28em"  class="cx-a" x="465.0" y="225.0"></text></g><g id="cx-8-5"><rect shape-rendering="crispEdge"  x="150.0" y="240.0" width="30.0" height="30.0" /><text dy=".28em"  class="cx-a" x="165.0" y="255.0"></text></g><g id="cx-8-9"><rect shape-rendering="crispEdge"  x="270.0" y="240.0" width="30.0" height="30.0" /><text dy=".28em"  class="cx-a" x="285.0" y="255.0"></text></g><g id="cx-8-11"><rect shape-rendering="crispEdge"  x="330.0" y="240.0" width="30.0" height="30.0" /><text dy="1em"  class="cx-c" x="332.0" y="242.0" >10</text><text dy=".28em"  class="cx-a" x="345.0" y="255.0"></text></g><g id="cx-8-12"><rect shape-rendering="crispEdge"  x="360.0" y="240.0" width="30.0" height="30.0" /><text dy="1em"  class="cx-c" x="362.0" y="242.0" >11</text><text dy=".28em"  class="cx-a" x="375.0" y="255.0"></text></g><g id="cx-8-13"><rect shape-rendering="crispEdge"  x="390.0" y="240.0" width="30.0" height="30.0" /><text dy=".28em"  class="cx-a" x="405.0" y="255.0"></text></g><g id="cx-8-14"><rect shape-rendering="crispEdge"  x="420.0" y="240.0" width="30.0" height="30.0" /><text dy="1em"  class="cx-c" x="422.0" y="242.0" >12</text><text dy=".28em"  class="cx-a" x="435.0" y="255.0"></text></g><g id="cx-8-15"><rect shape-rendering="crispEdge"  x="450.0" y="240.0" width="30.0" height="30.0" /><text dy=".28em"  class="cx-a" x="465.0" y="255.0"></text></g><g id="cx-8-16"><rect shape-rendering="crispEdge"  x="480.0" y="240.0" width="30.0" height="30.0" /><text dy=".28em"  class="cx-a" x="495.0" y="255.0"></text></g><g id="cx-9-9"><rect shape-rendering="crispEdge"  x="270.0" y="270.0" width="30.0" height="30.0" /><text dy=".28em"  class="cx-a" x="285.0" y="285.0"></text></g><g id="cx-9-12"><rect shape-rendering="crispEdge"  x="360.0" y="270.0" width="30.0" height="30.0" /><text dy=".28em"  class="cx-a" x="375.0" y="285.0"></text></g><g id="cx-9-14"><rect shape-rendering="crispEdge"  x="420.0" y="270.0" width="30.0" height="30.0" /><text dy=".28em"  class="cx-a" x="435.0" y="285.0"></text></g><g id="cx-10-5"><rect shape-rendering="crispEdge"  x="150.0" y="300.0" width="30.0" height="30.0" /><text dy="1em"  class="cx-c" x="152.0" y="302.0" >13</text><text dy=".28em"  class="cx-a" x="165.0" y="315.0"></text></g><g id="cx-10-8"><rect shape-rendering="crispEdge"  x="240.0" y="300.0" width="30.0" height="30.0" /><text dy="1em"  class="cx-c" x="242.0" y="302.0" >14</text><text dy=".28em"  class="cx-a" x="255.0" y="315.0"></text></g><g id="cx-10-9"><rect shape-rendering="crispEdge"  x="270.0" y="300.0" width="30.0" height="30.0" /><text dy=".28em"  class="cx-a" x="285.0" y="315.0"></text></g><g id="cx-10-10"><rect shape-rendering="crispEdge"  x="300.0" y="300.0" width="30.0" height="30.0" /><text dy=".28em"  class="cx-a" x="315.0" y="315.0"></text></g><g id="cx-10-11"><rect shape-rendering="crispEdge"  x="330.0" y="300.0" width="30.0" height="30.0" /><text dy=".28em"  class="cx-a" x="345.0" y="315.0"></text></g><g id="cx-10-12"><rect shape-rendering="crispEdge"  x="360.0" y="300.0" width="30.0" height="30.0" /><text dy=".28em"  class="cx-a" x="375.0" y="315.0"></text></g><g id="cx-10-14"><rect shape-rendering="crispEdge"  x="420.0" y="300.0" width="30.0" height="30.0" /><text dy=".28em"  class="cx-a" x="435.0" y="315.0"></text></g><g id="cx-11-5"><rect shape-rendering="crispEdge"  x="150.0" y="330.0" width="30.0" height="30.0" /><text dy=".28em"  class="cx-a" x="165.0" y="345.0"></text></g><g id="cx-11-9"><rect shape-rendering="crispEdge"  x="270.0" y="330.0" width="30.0" height="30.0" /><text dy=".28em"  class="cx-a" x="285.0" y="345.0"></text></g><g id="cx-11-12"><rect shape-rendering="crispEdge"  x="360.0" y="330.0" width="30.0" height="30.0" /><text dy=".28em"  class="cx-a" x="375.0" y="345.0"></text></g><g id="cx-11-14"><rect shape-rendering="crispEdge"  x="420.0" y="330.0" width="30.0" height="30.0" /><text dy=".28em"  class="cx-a" x="435.0" y="345.0"></text></g><g id="cx-12-2"><rect shape-rendering="crispEdge"  x="60.0" y="360.0" width="30.0" height="30.0" /><text dy="1em"  class="cx-c" x="62.0" y="362.0" >15</text><text dy=".28em"  class="cx-a" x="75.0" y="375.0"></text></g><g id="cx-12-5"><rect shape-rendering="crispEdge"  x="150.0" y="360.0" width="30.0" height="30.0" /><text dy="1em"  class="cx-c" x="152.0" y="362.0" >16</text><text dy=".28em"  class="cx-a" x="165.0" y="375.0"></text></g><g id="cx-12-6"><rect shape-rendering="crispEdge"  x="180.0" y="360.0" width="30.0" height="30.0" /><text dy=".28em"  class="cx-a" x="195.0" y="375.0"></text></g><g id="cx-12-7"><rect shape-rendering="crispEdge"  x="210.0" y="360.0" width="30.0" height="30.0" /><text dy=".28em"  class="cx-a" x="225.0" y="375.0"></text></g><g id="cx-12-8"><rect shape-rendering="crispEdge"  x="240.0" y="360.0" width="30.0" height="30.0" /><text dy=".28em"  class="cx-a" x="255.0" y="375.0"></text></g><g id="cx-12-9"><rect shape-rendering="crispEdge"  x="270.0" y="360.0" width="30.0" height="30.0" /><text dy=".28em"  class="cx-a" x="285.0" y="375.0"></text></g><g id="cx-12-14"><rect shape-rendering="crispEdge"  x="420.0" y="360.0" width="30.0" height="30.0" /><text dy=".28em"  class="cx-a" x="435.0" y="375.0"></text></g><g id="cx-13-2"><rect shape-rendering="crispEdge"  x="60.0" y="390.0" width="30.0" height="30.0" /><text dy=".28em"  class="cx-a" x="75.0" y="405.0"></text></g><g id="cx-13-5"><rect shape-rendering="crispEdge"  x="150.0" y="390.0" width="30.0" height="30.0" /><text dy=".28em"  class="cx-a" x="165.0" y="405.0"></text></g><g id="cx-13-11"><rect shape-rendering="crispEdge"  x="330.0" y="390.0" width="30.0" height="30.0" /><text dy="1em"  class="cx-c" x="332.0" y="392.0" >17</text><text dy=".28em"  class="cx-a" x="345.0" y="405.0"></text></g><g id="cx-13-12"><rect shape-rendering="crispEdge"  x="360.0" y="390.0" width="30.0" height="30.0" /><text dy=".28em"  class="cx-a" x="375.0" y="405.0"></text></g><g id="cx-13-13"><rect shape-rendering="crispEdge"  x="390.0" y="390.0" width="30.0" height="30.0" /><text dy=".28em"  class="cx-a" x="405.0" y="405.0"></text></g><g id="cx-13-14"><rect shape-rendering="crispEdge"  x="420.0" y="390.0" width="30.0" height="30.0" /><text dy=".28em"  class="cx-a" x="435.0" y="405.0"></text></g><g id="cx-14-0"><rect shape-rendering="crispEdge"  x="0.0" y="420.0" width="30.0" height="30.0" /><text dy="1em"  class="cx-c" x="2.0" y="422.0" >18</text><text dy=".28em"  class="cx-a" x="15.0" y="435.0"></text></g><g id="cx-14-1"><rect shape-rendering="crispEdge"  x="30.0" y="420.0" width="30.0" height="30.0" /><text dy=".28em"  class="cx-a" x="45.0" y="435.0"></text></g><g id="cx-14-2"><rect shape-rendering="crispEdge"  x="60.0" y="420.0" width="30.0" height="30.0" /><text dy=".28em"  class="cx-a" x="75.0" y="435.0"></text></g><g id="cx-14-3"><rect shape-rendering="crispEdge"  x="90.0" y="420.0" width="30.0" height="30.0" /><text dy=".28em"  class="cx-a" x="105.0" y="435.0"></text></g><g id="cx-14-4"><rect shape-rendering="crispEdge"  x="120.0" y="420.0" width="30.0" height="30.0" /><text dy=".28em"  class="cx-a" x="135.0" y="435.0"></text></g><g id="cx-14-5"><rect shape-rendering="crispEdge"  x="150.0" y="420.0" width="30.0" height="30.0" /><text dy=".28em"  class="cx-a" x="165.0" y="435.0"></text></g><g id="cx-15-2"><rect shape-rendering="crispEdge"  x="60.0" y="450.0" width="30.0" height="30.0" /><text dy=".28em"  class="cx-a" x="75.0" y="465.0"></text></g><g id="cx-16-2"><rect shape-rendering="crispEdge"  x="60.0" y="480.0" width="30.0" height="30.0" /><text dy="1em"  class="cx-c" x="62.0" y="482.0" >19</text><text dy=".28em"  class="cx-a" x="75.0" y="495.0"></text></g><g id="cx-16-3"><rect shape-rendering="crispEdge"  x="90.0" y="480.0" width="30.0" height="30.0" /><text dy=".28em"  class="cx-a" x="105.0" y="495.0"></text></g><g id="cx-16-4"><rect shape-rendering="crispEdge"  x="120.0" y="480.0" width="30.0" height="30.0" /><text dy=".28em"  class="cx-a" x="135.0" y="495.0"></text></g><g id="cx-16-5"><rect shape-rendering="crispEdge"  x="150.0" y="480.0" width="30.0" height="30.0" /><text dy=".28em"  class="cx-a" x="165.0" y="495.0"></text></g><g id="cx-16-6"><rect shape-rendering="crispEdge"  x="180.0" y="480.0" width="30.0" height="30.0" /><text dy=".28em"  class="cx-a" x="195.0" y="495.0"></text></g><g id="cx-17-2"><rect shape-rendering="crispEdge"  x="60.0" y="510.0" width="30.0" height="30.0" /><text dy=".28em"  class="cx-a" x="75.0" y="525.0"></text></g></svg>